<?xml version="1.0" encoding="iso-8859-1"?>
<!-- Generator: Adobe Illustrator 19.0.0, SVG Export Plug-In . SVG Version: 6.00 Build 0)  -->
<svg version="1.1" id="Capa_1" xmlns="http://www.w3.org/2000/svg" xmlns:xlink="http://www.w3.org/1999/xlink" x="0px" y="0px"
	 viewBox="0 0 512 512" style="enable-background:new 0 0 512 512;" xml:space="preserve">
<path style="fill:#FF7A53;" d="M481.54,356.126l-14.622,1.35c-27.534,2.56-87.714,15.442-97.965,38.886
	c-2.27,5.191-4.571,11.022-7.001,17.203c-8.081,20.543-17.243,43.827-32.635,62.97c-11.192,13.922-24.394,23.784-39.466,29.505
	C279.439,510.01,268.147,512,256.005,512h-0.01c-12.142,0-23.444-1.99-33.855-5.961c-15.072-5.721-28.274-15.582-39.466-29.505
	c-15.392-19.143-24.554-42.427-32.635-62.96c-2.43-6.181-4.731-12.022-7.001-17.213c-10.252-23.444-70.431-36.326-97.975-38.886
	l-14.602-1.36l1.03-14.642c1.16-16.423,3.13-32.265,5.921-47.497c6.951-38.116,18.943-72.401,35.846-102.356
	c0.97-1.71,1.95-3.421,2.95-5.101c0,0,0-0.01,0.01-0.01C13.517,128.87,40.601,23.744,41.842,19.123L46.932,0l142.892,84.443
	l-0.49,0.82h0.01c21.413-8.301,44.037-12.452,66.65-12.452h0.01c22.614,0,45.227,4.151,66.64,12.452h0.01l-0.49-0.82L465.058,0
	l5.091,19.123c1.24,4.621,28.324,109.747-34.375,167.386c0.01,0,0.01,0.01,0.01,0.01c1,1.68,1.98,3.391,2.95,5.101
	c16.783,29.745,28.735,63.76,35.696,101.556c2.87,15.482,4.891,31.585,6.071,48.298L481.54,356.126z"/>
<path style="fill:#FF4F19;" d="M481.54,356.126l-14.622,1.35c-27.534,2.56-87.714,15.442-97.965,38.886
	c-2.27,5.191-4.571,11.022-7.001,17.203c-8.081,20.543-17.243,43.827-32.635,62.97c-11.192,13.922-24.394,23.784-39.466,29.505
	C279.439,510.01,268.147,512,256.005,512V72.811c22.614,0,45.227,4.151,66.64,12.452h0.01l-0.49-0.82L465.058,0l5.091,19.123
	c1.24,4.621,28.324,109.747-34.375,167.386c0.01,0,0.01,0.01,0.01,0.01c1,1.68,1.98,3.391,2.95,5.101
	c16.783,29.745,28.735,63.76,35.696,101.556c2.87,15.482,4.891,31.585,6.071,48.298L481.54,356.126z"/>
<rect x="306.782" y="250.483" transform="matrix(-0.7085 -0.7057 0.7057 -0.7085 355.7003 696.9269)" style="fill:#3A3A41;" width="30.004" height="49.037"/>
<rect x="165.195" y="259.995" transform="matrix(-0.7057 -0.7085 0.7085 -0.7057 128.7596 603.4773)" style="fill:#57555C;" width="49.037" height="30.004"/>
<path style="fill:#FFD8A6;" d="M481.54,356.126l-14.622,1.35c-27.534,2.56-87.714,15.442-97.965,38.886
	c-2.27,5.191-4.571,11.022-7.001,17.203c-8.081,20.543-17.243,43.827-32.635,62.97C310.393,500.068,285.74,512,256.005,512h-0.01
	c-29.735,0-54.398-11.932-73.321-35.466c-15.392-19.143-24.554-42.427-32.635-62.96c-2.43-6.181-4.731-12.022-7.001-17.213
	c-10.252-23.444-70.431-36.326-97.975-38.886l-14.602-1.36l1.03-14.642c1.16-16.423,3.13-32.265,5.921-47.497
	c4.241,0.58,9.231,1.35,14.792,2.38c4.531,0.84,9.451,1.84,14.662,3.05c55.999,13.002,145.603,49.378,155.274,149.643h67.711
	c9.982-103.496,101.666-138.922,155.054-150.834c5.321-1.18,10.252-2.13,14.692-2.89c5.921-1.02,10.962-1.7,14.832-2.15
	c2.87,15.482,4.891,31.585,6.071,48.298L481.54,356.126z"/>
<path style="fill:#FFC173;" d="M481.54,356.126l-14.622,1.35c-27.534,2.56-87.714,15.442-97.965,38.886
	c-2.27,5.191-4.571,11.022-7.001,17.203c-8.081,20.543-17.243,43.827-32.635,62.97C310.393,500.068,285.74,512,256.005,512v-62.95
	h33.845c9.982-103.496,101.666-138.922,155.054-150.834c5.321-1.18,10.252-2.13,14.692-2.89c5.921-1.02,10.962-1.7,14.832-2.15
	c2.87,15.482,4.891,31.585,6.071,48.298L481.54,356.126z"/>
<path style="fill:#57555C;" d="M289.85,447.37v58.669C279.439,510.01,268.147,512,256.005,512h-0.01
	c-12.142,0-23.444-1.99-33.855-5.961V447.37H289.85z"/>
<path style="fill:#3A3A41;" d="M289.85,447.37v58.669C279.439,510.01,268.147,512,256.005,512v-64.63H289.85z"/>
<g>
</g>
<g>
</g>
<g>
</g>
<g>
</g>
<g>
</g>
<g>
</g>
<g>
</g>
<g>
</g>
<g>
</g>
<g>
</g>
<g>
</g>
<g>
</g>
<g>
</g>
<g>
</g>
<g>
</g>
</svg>
